<svg width="102" height="80" viewBox="0 0 102 80" fill="none" xmlns="http://www.w3.org/2000/svg">
<path d="M46.8627 8.75866C50.0338 5.04302 48.6267 2.2537 48.5655 2.134L48.433 1.88421L48.1627 1.81656C36.6761 -1.05603 24.4094 -0.0204388 15.6452 1.49912C15.6197 1.48871 15.5993 1.4679 15.5738 1.45749L15.5433 1.51473C8.4361 2.75328 3.66401 4.30926 3.55694 4.34569C1.91526 4.70476 1.05873 7.5097 1.56857 10.9651C1.93056 13.411 2.84827 15.3365 3.95462 16.2055C4.05149 17.3608 4.67859 23.9803 6.37635 26.1295C6.73834 26.5875 7.1819 27.1026 7.69684 27.7063C9.16007 29.408 11.2708 32.0152 12.3109 34.2321C12.2854 34.435 12.2497 34.6328 12.2242 34.8409C12.1834 35.1376 12.1477 35.4966 12.1579 35.8349C12.1579 36.1732 12.1936 36.5114 12.2497 36.8497C12.3874 37.5158 12.5811 38.2391 13.2082 38.8324C13.407 39.0145 13.6619 39.1602 13.9322 39.2487C15.1558 42.6313 17.2869 47.5282 19.4486 50.6662C19.8208 51.2074 20.2083 51.759 20.6009 52.3159C21.2178 53.1953 21.85 54.0956 22.4516 54.9907C22.421 55.3394 22.3904 55.688 22.3598 56.0367C22.3241 56.5935 22.2425 57.192 22.217 57.8425C22.2068 58.1651 22.2119 58.5034 22.2578 58.8521C22.3037 59.2163 22.421 59.5858 22.5892 59.9085C22.7626 60.2363 22.9869 60.5485 23.3132 60.8035C23.6293 61.0585 24.0882 61.2407 24.5419 61.2095C24.9243 61.1886 25.2863 61.0377 25.5769 60.8087C25.7655 61.3968 25.8879 61.938 25.9338 62.4272C26.1428 64.8054 27.3358 65.4091 28.1057 65.5496C28.381 66.9494 28.5594 67.6884 28.8908 68.1099C29.2732 68.5939 29.8187 69.2964 30.5019 69.2964C30.6039 69.2964 30.711 69.2808 30.818 69.2444C31.644 68.979 32.0314 67.8133 32.2048 65.076C32.4597 61.0533 33.0307 56.1304 35.1822 53.7157C37.8487 50.7183 41.2493 45.5091 42.0345 40.6746C42.1823 39.7691 42.3098 38.9261 42.4271 38.1299C42.9879 34.383 43.3907 31.6769 45.3382 27.264C47.2042 23.0383 46.9901 22.0704 46.3222 20.2907C46.154 19.8327 45.9602 19.3175 45.792 18.6254C45.4759 17.2828 45.7257 16.32 46.0775 14.993C46.154 14.7068 46.2304 14.3998 46.312 14.0771C46.6281 13.5307 46.8117 12.875 46.8117 12.1673C46.8117 11.9591 46.7913 11.7561 46.7607 11.5532C46.8474 10.7466 46.8881 9.81506 46.8627 8.74304V8.75866ZM29.4721 10.7674C29.7576 12.032 28.7991 13.3434 27.3409 13.6868C26.0102 13.9991 24.7255 13.4006 24.287 12.339C24.7102 12.3078 25.1333 12.2505 25.5157 12.0788C26.102 11.8186 26.5762 11.3398 27.1574 11.064C27.9425 10.6945 28.7022 10.6529 29.467 10.7258C29.467 10.7414 29.4771 10.7518 29.4771 10.7674H29.4721ZM41.9835 10.6061C42.2231 10.6893 42.4678 10.7674 42.7177 10.8194C43.5691 11.012 44.757 11.1577 45.5728 10.6633C45.4606 12.3962 45.1394 13.6244 44.8641 14.6652V14.6756C44.5633 14.8473 44.2319 14.9514 43.8801 14.9514C42.6055 14.9514 41.5705 13.7076 41.5705 12.1725C41.5705 11.5896 41.7235 11.0484 41.9784 10.6009L41.9835 10.6061ZM44.339 2.31094C44.5327 2.7845 44.6907 3.27888 44.7876 3.78366C44.8794 4.18437 44.9202 4.59028 44.9202 5.00139C44.9202 5.4125 44.8641 5.82362 44.7111 6.22953C44.9915 5.90168 45.1598 5.47495 45.2516 5.03782C45.3433 4.60069 45.3484 4.14794 45.3229 3.7056C45.2822 3.28408 45.2006 2.86256 45.0782 2.45145C45.9042 2.61277 46.725 2.7845 47.5458 2.98225C47.7396 3.62234 48.0149 5.44373 45.9551 7.87398C45.0731 7.85317 42.3251 7.80633 38.4809 7.99888C38.6695 7.68143 38.8327 7.34838 38.9551 6.99451C39.2457 6.09943 39.2966 5.12629 39.0213 4.25722C39.0009 5.16271 38.8276 6.02137 38.4503 6.78635C38.2464 7.2391 37.9711 7.65021 37.6703 8.04051C34.1218 8.23826 29.7576 8.63376 25.1027 9.40915C25.3169 8.97202 25.4749 8.51407 25.5973 8.05612C25.8471 6.92165 25.9338 5.73515 25.633 4.6215C25.6432 5.19394 25.582 5.75076 25.4851 6.29718C25.3882 6.8436 25.2608 7.38481 25.0721 7.9C24.9039 8.4204 24.6745 8.90957 24.3941 9.35711C24.3533 9.42476 24.3074 9.48721 24.2615 9.54966C20.5958 10.1897 16.7771 11.064 13.0603 12.2661C13.1776 11.9279 13.2745 11.5896 13.356 11.2514C13.5702 10.1741 13.6416 9.06569 13.4631 7.99367C13.3509 9.06569 13.1623 10.1117 12.836 11.1056C12.6831 11.6 12.4944 12.084 12.265 12.5315C10.6131 13.0884 8.99183 13.7076 7.41642 14.3998C7.74272 13.2341 7.8192 11.7145 7.57447 10.0388C7.34505 8.47244 6.8556 7.03094 6.20811 5.97974C5.98888 5.62587 5.75945 5.33444 5.51982 5.08986C7.51329 4.51742 11.2912 3.53908 16.1194 2.71164C16.5476 3.18 16.8841 3.75764 17.1441 4.37171C17.5724 5.34485 17.8171 6.41167 17.9446 7.5097C18.1128 6.40646 17.9803 5.26159 17.6489 4.17396C17.4653 3.63795 17.2308 3.10194 16.8943 2.62318C16.8841 2.60756 16.8739 2.59716 16.8637 2.58155C21.1413 1.87901 26.1836 1.32219 31.5165 1.28055C31.7102 1.4731 31.8836 1.69687 32.0365 1.93625C32.3017 2.35777 32.5209 2.82613 32.6636 3.32051C32.8217 3.80968 32.9033 4.32487 32.9186 4.84527C32.9288 5.36567 32.8574 5.89647 32.628 6.38565C32.9848 5.97453 33.1735 5.41771 33.25 4.86609C33.3264 4.30926 33.2907 3.73683 33.1888 3.18C33.0664 2.62838 32.8778 2.08717 32.5872 1.58759C32.526 1.48351 32.4546 1.37943 32.3832 1.27535C36.2937 1.28576 40.3367 1.58238 44.339 2.30573V2.31094ZM2.81258 10.7778C2.36902 7.78031 3.12868 5.70393 3.84755 5.59464C3.86795 5.59464 3.88834 5.59464 3.91383 5.59464C4.26562 5.59464 4.72957 6.00055 5.14764 6.67186C5.70846 7.57735 6.12653 8.84192 6.33557 10.2418C6.71285 12.7917 6.2183 14.6652 5.62179 15.2428C5.49433 15.3052 5.36687 15.3625 5.23941 15.4249C4.51544 15.4301 3.24594 13.7024 2.81768 10.783L2.81258 10.7778ZM7.35524 25.3281C6.19791 23.8606 5.50963 19.1198 5.2649 16.7051C5.33628 16.7051 5.41276 16.6999 5.48413 16.6895C5.76964 16.6479 6.02966 16.523 6.26929 16.3408C6.31517 16.32 6.36106 16.2992 6.40184 16.2784C6.77403 18.0425 7.84979 22.2057 10.0829 24.5735C11.0924 25.6455 12.1477 27.0974 13.0297 28.4765C13.0196 28.7887 13.0043 29.101 12.9788 29.4132C12.8972 30.3031 12.7697 31.1982 12.627 32.1037C11.4747 30.173 9.87895 28.3048 8.64004 26.8633C8.1353 26.2752 7.69684 25.7652 7.35524 25.3281ZM21.6205 51.5717C21.228 51.0149 20.8456 50.4685 20.4785 49.9325C18.5921 47.19 16.5527 42.7041 15.2577 39.2071C15.3801 39.1602 15.4974 39.103 15.6044 39.0301C15.9511 38.8012 16.2111 38.4993 16.4049 38.1663C16.5629 37.8749 16.7006 37.5782 16.8026 37.2764C16.8179 37.3284 16.8331 37.3753 16.8433 37.4273C17.9191 41.6581 20.1216 46.987 22.7524 51.8579L22.6912 52.446C22.6708 52.6385 22.6555 52.8363 22.6351 53.0288C22.2986 52.5396 21.957 52.0557 21.6205 51.5769V51.5717ZM18.6482 39.1706C19.0611 38.7543 19.5761 38.5201 20.1216 38.5201C21.3962 38.5201 22.4312 39.7639 22.4312 41.2991C22.4312 42.7093 21.5492 43.8646 20.4173 44.0416C19.7239 42.3607 19.1274 40.7214 18.6482 39.1706ZM27.1829 62.3179C27.1166 61.5477 26.7801 60.4549 26.4079 59.4921C26.4487 59.3516 26.4844 59.2111 26.515 59.0706C27.1217 60.8087 27.5092 62.5313 27.8049 64.004C27.3817 63.5877 27.2339 62.8383 27.188 62.3127L27.1829 62.3179ZM32.2966 56.5571C31.333 56.2188 30.6345 55.1416 30.6345 53.8927C30.6345 52.3627 31.6695 51.1138 32.9441 51.1138C33.6833 51.1138 34.3614 51.5353 34.7948 52.2378C34.6112 52.4564 34.4328 52.6645 34.2594 52.8623C33.3978 53.8302 32.7707 55.1156 32.3017 56.5571H32.2966ZM41.1881 37.9477C41.0913 38.593 40.9893 39.2747 40.8771 39.9825C40.8619 39.9825 40.8517 39.9825 40.8364 39.9825C39.5618 39.9825 38.5268 38.7387 38.5268 37.2035C38.5268 35.6684 39.5618 34.4246 40.8364 34.4246C41.1423 34.4246 41.4431 34.5079 41.7184 34.6432C41.5195 35.7152 41.3564 36.7872 41.1881 37.9373V37.9477ZM41.8458 33.9979C41.5246 33.8626 41.183 33.7897 40.8364 33.7897C39.2151 33.7897 37.8997 35.3249 37.8997 37.2088C37.8997 39.0926 39.1794 40.5757 40.7701 40.6174C40.0767 44.5776 37.5326 48.8292 35.2077 51.7278C34.6571 50.942 33.8363 50.4737 32.939 50.4737C31.3228 50.4737 30.0023 52.0088 30.0023 53.8927C30.0023 55.4226 30.8894 56.7444 32.1079 57.166C31.3992 59.6379 31.1137 62.4896 30.9506 65.0031C30.818 67.0535 30.5733 67.7404 30.4509 67.9642C30.3235 67.8653 30.1297 67.6468 29.8697 67.3137C29.6709 67.0639 29.4313 65.8254 29.2222 64.7273C28.8144 62.6041 27.968 58.8208 26.6221 55.9899C26.6221 55.9743 26.6221 55.9534 26.6221 55.9378C26.6068 54.7409 26.5507 53.5284 26.515 52.3471C26.5048 51.7695 26.5354 51.1918 26.775 50.6974C27.0095 50.2083 27.5143 49.8128 28.121 49.8752C27.8406 49.7971 27.5143 49.7815 27.2186 49.9116C26.9331 50.0313 26.673 50.2447 26.4793 50.5101C26.0918 51.0461 25.9797 51.707 25.8981 52.3159C25.7859 53.5336 25.7094 54.7201 25.6381 55.9274C25.5361 57.1243 25.6126 58.3681 25.2302 59.2736C25.0416 59.7263 24.7815 59.9501 24.4756 59.9605C24.2207 59.9917 23.8995 59.7315 23.6905 59.3152C23.5834 59.1123 23.512 58.8989 23.4763 58.6699C23.4356 58.4253 23.4254 58.1599 23.4305 57.8789C23.4356 57.3221 23.5222 56.734 23.5324 56.0887C23.5732 54.8866 23.6395 53.7001 23.6548 52.498L23.6905 50.7026C23.7058 50.1198 23.6905 49.4225 23.5324 48.824C23.3795 48.2099 23.1399 47.6167 22.7881 47.1015C22.4414 46.5863 21.9621 46.1596 21.4166 45.9202C22.3802 46.6487 22.8085 47.8144 22.9257 48.9333C22.9512 49.1467 22.9563 49.3548 22.9563 49.5578C22.1202 47.9237 21.3503 46.2741 20.662 44.6504C22.0182 44.3486 23.043 42.9643 23.043 41.2991C23.043 39.4152 21.7276 37.8801 20.1063 37.8801C19.4945 37.8801 18.9133 38.1038 18.4238 38.4993C18.2862 38.0258 18.1536 37.5574 18.0364 37.1047C17.8732 36.4698 17.4246 34.9554 17.1798 34.18C17.1798 33.3058 17.1289 32.4523 17.1798 31.6145C17.19 31.0525 17.3532 30.4488 17.5214 29.8868C17.6132 29.6058 17.7203 29.3247 17.8936 29.101C17.9803 29.0125 18.0874 28.898 18.2199 28.924C18.2862 28.924 18.3474 28.9709 18.4136 28.9969L18.5768 29.1478L18.4442 28.9605C18.3831 28.9136 18.3219 28.846 18.2403 28.8304C18.0619 28.7627 17.8936 28.872 17.7611 28.9657C17.5112 29.1894 17.3532 29.4704 17.2053 29.7463C16.9249 30.3135 16.6853 30.8807 16.568 31.5416C16.3539 32.7906 16.3488 34.0291 16.1806 35.1948C16.0939 35.7725 15.9664 36.3345 15.7727 36.8445C15.6758 37.0995 15.5484 37.3388 15.4107 37.5626C15.2883 37.75 15.1252 37.9113 14.962 38.005C14.7989 38.1038 14.651 38.1142 14.4522 38.1142C14.2738 38.1038 14.1463 38.031 14.0137 37.9113C13.7435 37.6667 13.5549 37.1463 13.4682 36.6259C13.4223 36.3605 13.3866 36.0899 13.3815 35.8141C13.3713 35.5383 13.3917 35.2885 13.4274 34.9762C13.4835 34.383 13.5753 33.7793 13.6416 33.1705C13.7792 31.9527 13.9424 30.7142 13.9373 29.4548C13.9475 28.2007 13.8149 26.9049 13.3662 25.7028C12.9176 24.5059 12.1018 23.4443 11.0414 22.8458C11.9285 23.6732 12.5097 24.7296 12.7697 25.8537C12.1936 25.0783 11.592 24.3445 10.97 23.6784C9.12438 21.7217 8.12 18.2143 7.70193 16.3981C8.54317 16.9601 9.44048 15.6071 10.1492 15.2636C11.4543 14.6391 13.3968 15.1491 14.8142 14.9254C15.8848 14.7588 16.7822 14.2853 17.7254 13.7232C18.7145 13.1404 19.5455 12.4014 20.6977 12.2297C21.6613 12.0892 22.6045 12.4118 23.5681 12.365C23.5834 12.365 23.5936 12.365 23.6089 12.365C24.078 13.8377 25.74 14.7016 27.4531 14.3009C29.1814 13.895 30.3235 12.3494 30.089 10.7986C30.6549 10.8871 31.231 11.0068 31.8224 11.0744C32.9542 11.2045 34.1677 11.1837 35.2332 10.7258C36.0847 10.3615 36.7271 10.0076 37.6703 9.92955C38.6644 9.84628 39.73 9.85669 40.6885 10.1533C40.9128 10.2262 41.1372 10.3042 41.3564 10.3823C41.0811 10.9027 40.9128 11.5116 40.9128 12.1673C40.9128 14.0511 42.2282 15.5863 43.8495 15.5863C44.1248 15.5863 44.3848 15.529 44.6398 15.4458C44.3746 16.5386 44.2268 17.5846 44.5429 18.9272C44.5582 19.0001 44.5786 19.0625 44.5939 19.1302C43.2071 19.4008 42.1466 20.8006 42.1466 22.4919C42.1466 24.1832 43.1816 25.5519 44.5429 25.8485C44.4256 26.1295 44.3033 26.4209 44.1605 26.7436C42.8961 29.6058 42.2537 31.8278 41.8102 33.9979H41.8458ZM44.8233 25.2396C43.6864 25.0679 42.8043 23.9074 42.8043 22.4971C42.8043 21.0869 43.6762 19.942 44.8029 19.7598C44.9202 20.1345 45.0374 20.4624 45.1496 20.759C45.6034 21.9767 45.843 22.6324 44.8233 25.2396Z" fill="#D62828"/>
<path d="M23.3097 17.2883C23.3097 17.2883 16.7175 16.4348 18.1807 24.2304C18.1807 24.2304 19.542 19.6353 23.3097 17.2883Z" fill="#D62828"/>
<path d="M40.8146 17.9538C40.8146 17.9538 41.513 11.2042 33.9062 12.8643C33.9062 12.8643 38.4336 14.1549 40.8146 17.9538Z" fill="#D62828"/>
<path d="M29.2504 32.4889C29.9846 30.9902 30.2344 29.1271 29.954 27.2329C29.6736 25.3387 28.8986 23.6318 27.7617 22.4192C26.5738 21.1495 25.136 20.5718 23.7085 20.7904C22.286 21.009 21.0777 21.9925 20.3078 23.5641C19.5737 25.0628 19.3239 26.9259 19.6043 28.8201C19.8847 30.7144 20.6596 32.4213 21.7915 33.6338C22.8163 34.7266 24.0246 35.3095 25.2533 35.3095C25.4521 35.3095 25.6459 35.2938 25.8447 35.2626C27.2671 35.0441 28.4755 34.0553 29.2453 32.4889H29.2504ZM24.0705 28.7473L25.2023 25.8591C24.4375 25.0785 23.4994 24.6725 22.5562 24.8183C21.9138 24.9171 21.353 25.2606 20.8942 25.7758C21.0063 25.1929 21.1848 24.6361 21.4295 24.1417C22.0107 22.9552 22.8876 22.2163 23.8971 22.0602C24.0297 22.0393 24.1622 22.0289 24.2948 22.0289C25.1768 22.0289 26.0741 22.4713 26.8542 23.3091C27.8076 24.3291 28.4704 25.7914 28.71 27.4254C28.9496 29.0595 28.7406 30.6571 28.1237 31.9165C27.5832 33.0145 26.793 33.7223 25.8804 33.946C26.7114 32.8792 27.1244 31.2139 26.8542 29.4134C26.7522 28.7108 26.5534 28.0551 26.2883 27.4723L24.0705 28.7473Z" fill="#D62828"/>
<path d="M39.8008 18.6253C38.6128 17.3555 37.1751 16.7779 35.7475 16.9964C34.3251 17.215 33.1168 18.1986 32.3469 19.7702C31.6127 21.2689 31.3629 23.1319 31.6433 25.0262C31.9237 26.9204 32.6987 28.6273 33.8305 29.8398C34.8553 30.9327 36.0636 31.5155 37.2923 31.5155C37.4912 31.5155 37.6849 31.4999 37.8838 31.4687C39.3062 31.2501 40.5145 30.2666 41.2844 28.695C42.0186 27.1962 42.2684 25.3332 41.988 23.439C41.7076 21.5447 40.9326 19.8378 39.8008 18.6253ZM40.1627 28.1225C39.6223 29.2206 38.8321 29.9283 37.9195 30.1521C38.7505 29.0853 39.1635 27.42 38.8983 25.6194C38.7964 24.9169 38.5975 24.2612 38.3324 23.6783L36.1146 24.9533L37.2465 22.0651C36.4817 21.2845 35.5436 20.8786 34.6004 21.0243C33.958 21.1232 33.3972 21.4667 32.9383 21.9818C33.0505 21.399 33.2289 20.8422 33.4737 20.3478C34.0549 19.1613 34.9318 18.4223 35.9413 18.2662C36.0738 18.2454 36.2064 18.235 36.3389 18.235C37.221 18.235 38.1183 18.6773 38.8983 19.5152C39.8517 20.5351 40.5145 21.9975 40.7542 23.6315C40.9938 25.2655 40.7847 26.8632 40.1678 28.1225H40.1627Z" fill="#D62828"/>
<path d="M36.0363 44.1564C35.8579 44.3333 35.6998 44.5311 35.4908 44.6768C32.8651 42.08 33.6758 38.5101 33.7165 38.3592H33.7013C33.7471 38.3175 33.793 38.2863 33.8389 38.2499C34.0225 38.0886 34.1958 37.9064 34.3691 37.7347C34.5527 37.5682 34.7056 37.3756 34.8484 37.1779C35.4806 36.4285 35.8936 35.523 36.1995 34.6279C35.6284 35.3929 35.0778 36.1371 34.3691 36.7043C33.686 37.2924 32.9416 37.7815 32.1309 38.125C31.3356 38.4893 30.4893 38.7391 29.6327 38.9056C29.2045 38.9889 28.766 39.0513 28.3326 39.0825C27.9299 39.1346 27.5016 39.1398 27.1243 39.145C26.7318 38.3852 26.2066 37.6983 25.5234 37.2091C25.8548 38.0678 26.125 38.8796 26.3239 39.6966C26.5176 40.5136 26.6145 41.3254 26.6145 42.1321C26.6043 42.9387 26.5431 43.7505 26.3188 44.5571C26.2423 44.9734 26.0843 45.3637 25.967 45.78C25.8395 46.1964 25.6509 46.5919 25.5234 47.0498C25.8701 46.7636 26.2117 46.4461 26.5023 46.0923C26.6706 45.8477 26.8592 45.5979 27.0173 45.3377C27.7565 45.9726 28.5723 46.4513 29.4798 46.8104C30.5708 47.2423 31.8352 47.3881 33.0079 47.081C34.1703 46.7636 35.2053 46.0819 35.9241 45.1868C36.1332 44.989 36.2708 44.734 36.434 44.4999L36.903 43.7973C37.1376 43.2821 37.3823 42.7773 37.5964 42.2674C37.2446 42.6993 36.9234 43.1468 36.592 43.5736L36.0363 44.1564ZM33.8491 45.7228L33.4973 45.8321C33.2628 45.9049 33.0385 45.9934 32.7886 45.9986C31.8352 46.1547 30.8614 45.9622 29.9437 45.5823C29.5155 45.4001 29.1025 45.1868 28.7048 44.9266C29.4747 44.2553 31.096 43.1833 33.1761 43.6412C33.482 44.2449 33.8899 44.8485 34.4303 45.4158C34.3436 45.4574 34.257 45.499 34.1754 45.5511C34.0632 45.6083 33.9562 45.676 33.844 45.7228H33.8491Z" fill="#D62828"/>
<path d="M13.5745 16.2207C12.0144 16.2207 10.75 17.6986 10.75 19.52C10.75 21.3414 12.0195 22.8193 13.5745 22.8193C15.1295 22.8193 16.399 21.3414 16.399 19.52C16.399 17.6986 15.1295 16.2207 13.5745 16.2207ZM13.5745 22.1792C12.3611 22.1792 11.3771 20.9875 11.3771 19.52C11.3771 18.0525 12.3611 16.8608 13.5745 16.8608C14.7879 16.8608 15.7719 18.0525 15.7719 19.52C15.7719 20.9875 14.7879 22.1792 13.5745 22.1792Z" fill="#D62828"/>
<path d="M62.2548 34.9194C62.5098 34.5499 62.7341 34.1701 62.9074 33.7641C63.3102 32.8274 63.3357 32.0104 62.9839 31.3287C62.7341 30.8447 62.3466 30.5377 61.9999 30.3451C62.107 30.0485 62.1937 29.7259 62.2141 29.3668C62.2701 28.7579 62.0611 28.019 61.5615 27.5454C61.0567 27.0406 60.3786 26.8949 59.8382 26.8845C59.2774 26.8741 58.7726 26.9678 58.2883 27.0927C57.8447 27.2124 57.4318 27.3581 57.0239 27.5246C57.08 27.1915 57.1259 26.8533 57.1412 26.5046C57.187 25.6095 57.0647 24.6624 56.6976 23.7881C56.3407 22.9139 55.7442 22.1437 55.0202 21.5713C54.2861 21.004 53.4601 20.6085 52.5169 20.4368C52.2824 20.3952 52.0326 20.3743 51.742 20.3899C51.4666 20.3952 51.0231 20.52 50.7325 20.8063C50.4317 21.0873 50.2889 21.4307 50.2226 21.7326C50.1462 22.0396 50.1564 22.3102 50.1666 22.5756C50.2532 23.5904 50.6509 24.4334 51.0282 25.162C51.6145 26.3381 51.9102 27.7848 52.053 29.169C51.5533 29.6114 51.1302 30.0745 50.7223 30.5949C50.5234 30.8603 50.3348 31.1361 50.1615 31.4276L50.0493 31.4015C48.8206 31.1361 47.5817 31.9323 47.2962 33.1813C47.0565 34.2221 46.8475 35.903 47.2146 37.9846C47.3319 38.6559 47.7244 39.2439 48.2904 39.603C48.6625 39.8372 49.0857 39.9621 49.5191 39.9621C49.7332 39.9621 49.9524 39.9308 50.1615 39.8684L50.8192 39.6759C50.8497 39.7175 50.8752 39.7695 50.9058 39.8112C51.5125 40.5813 52.4608 40.9508 53.2868 41.0497C54.1382 41.159 54.9692 41.0497 55.7391 40.8259C56.3305 40.6594 56.876 40.4408 57.4165 40.165C57.5592 40.2379 57.7122 40.2951 57.8804 40.3316C58.064 40.3732 58.2628 40.394 58.4616 40.394C59.7872 40.394 61.4085 39.5406 62.4588 38.2292C63.0961 37.4329 63.3102 36.6784 63.0961 35.9914C62.938 35.4867 62.5862 35.1484 62.2446 34.9194H62.2548ZM56.9474 36.3817C56.6517 36.0695 56.6211 35.6011 56.7588 35.2109C56.9984 35.1588 57.2278 35.086 57.442 35.0027C58.4056 34.6072 59.1958 34.0087 59.9147 33.3374C60.4857 32.791 61.0057 32.1873 61.4391 31.49C61.6073 31.5837 61.7807 31.7242 61.8827 31.9271C62.0458 32.2446 62.005 32.6921 61.7654 33.249C61.3626 34.1909 60.6743 35.0339 59.7821 35.6896C58.4209 36.6888 57.4675 36.923 56.9474 36.3817ZM49.8199 38.6403C49.5242 38.7235 49.2234 38.6819 48.9633 38.5206C48.6982 38.354 48.5198 38.0782 48.4637 37.766C48.1374 35.8978 48.3209 34.4042 48.5351 33.4779C48.6523 32.9679 49.0908 32.6297 49.5853 32.6349C49.57 32.6713 49.5548 32.7077 49.5395 32.7442C49.2692 33.5404 49.1367 34.4355 49.2743 35.3045C49.3763 36.0955 49.7026 36.8189 50.1054 37.459C50.1105 37.8337 50.1666 38.1615 50.2583 38.5154L49.8199 38.6455V38.6403ZM55.4128 39.5249C54.7551 39.6915 54.0923 39.7487 53.4754 39.6654C52.8534 39.577 52.3232 39.3272 52.002 38.9057C51.8388 38.6975 51.7165 38.4425 51.6349 38.1615C51.5533 37.8961 51.5227 37.5422 51.538 37.3133L51.5533 37.0479L51.4106 36.8241C51.0588 36.2829 50.8039 35.7 50.7325 35.0964C50.6458 34.4927 50.7427 33.8734 50.9568 33.275C51.176 32.6765 51.5125 32.0937 51.9204 31.5629C52.3232 31.0373 52.8279 30.5169 53.3123 30.1266L53.6437 29.8612L53.6131 29.4605C53.5519 28.581 53.4244 27.764 53.2358 26.9209C53.042 26.0883 52.7922 25.2557 52.3844 24.449C52.0224 23.7569 51.7471 23.0804 51.6961 22.4715C51.6655 22.1853 51.7573 21.9615 51.7675 21.9824C51.7726 21.9824 51.7929 21.9772 51.849 21.972C51.9561 21.9668 52.109 21.972 52.262 22.0032C53.5417 22.2478 54.7857 23.1741 55.2955 24.4126C55.836 25.6616 55.7034 27.1967 55.2446 28.633L54.6735 30.4336L56.2999 29.5125C57.029 29.1014 57.8549 28.7267 58.6452 28.5029C59.4252 28.274 60.3022 28.2375 60.5928 28.5758C60.7661 28.7423 60.8579 28.9765 60.8375 29.2939C60.8273 29.6114 60.6947 29.9913 60.5214 30.3503C60.1645 31.0789 59.6139 31.771 58.997 32.3695C58.3801 32.9627 57.6765 33.4935 56.9474 33.8006C56.5854 33.9567 56.2132 34.0295 55.9532 33.9931C55.836 33.9723 55.6983 33.9151 55.6626 33.8838C55.6218 33.8578 55.6065 33.837 55.5963 33.7121C55.5963 33.4623 55.7187 33.0408 55.9124 32.6713C56.1062 32.2914 56.3152 31.8959 56.565 31.5212C57.0392 30.751 57.5745 29.9965 58.0946 29.2107L58.064 29.1795C57.2686 29.6842 56.5548 30.2983 55.8971 30.9852C55.581 31.3391 55.2548 31.7034 54.9896 32.1301C54.7347 32.562 54.439 33.0044 54.4033 33.6965C54.3778 34.0295 54.5002 34.5031 54.8112 34.7893C55.0151 34.9819 55.2191 35.0964 55.4281 35.1744C55.3669 35.2525 55.3057 35.3357 55.2395 35.4086C54.9845 35.7208 54.6939 35.9967 54.3829 36.2516C54.0719 36.5118 53.7303 36.7252 53.3632 36.9073C52.9962 37.0895 52.6087 37.2352 52.1906 37.3237C52.6138 37.3913 53.0522 37.3341 53.4754 37.23C53.8986 37.1207 54.3064 36.9334 54.6888 36.7096C54.9539 36.5275 55.2089 36.3245 55.4485 36.1059C55.525 36.5483 55.7187 36.9646 56.0297 37.2924C56.2031 37.4694 56.3917 37.6047 56.5854 37.714C56.407 38.1875 56.356 38.6247 56.458 39.0254C56.4733 39.0774 56.4988 39.119 56.5141 39.1659C56.147 39.322 55.7646 39.4521 55.3924 39.5458L55.4128 39.5249ZM61.4952 37.4173C60.4857 38.6819 58.9715 39.2595 58.1557 39.0826C57.8192 39.0097 57.7326 38.8276 57.6918 38.6819C57.6459 38.505 57.7071 38.25 57.86 37.9429C58.6248 37.8701 59.5068 37.4694 60.5112 36.7304C60.8477 36.4806 61.1536 36.2048 61.4391 35.9134C61.6328 36.0175 61.847 36.1788 61.9081 36.3817C61.9846 36.6263 61.8368 36.9906 61.4952 37.4173Z" fill="#D62828"/>
<path d="M14.4035 46.7169C14.2302 46.259 13.9549 45.8427 13.6082 45.4992L13.7356 45.5356L14.0619 44.3908C14.2251 43.8183 14.1537 43.2147 13.8682 42.6943C13.5776 42.1687 13.0983 41.794 12.5222 41.6431C10.9876 41.2371 8.53017 40.9093 5.56291 41.6639C4.9766 41.8148 4.48715 42.2155 4.21694 42.7723C3.94672 43.3344 3.93143 43.9848 4.17615 44.5573L4.35969 44.984C4.17105 45.1297 3.99261 45.2962 3.83456 45.4836C3.44198 45.9624 3.20746 46.5764 3.15137 47.1957C3.12078 47.5079 3.14118 47.8202 3.19726 48.122C3.19726 48.1532 3.21255 48.1844 3.21765 48.2157C2.63644 48.3822 2.1266 48.7048 1.69833 49.0795C1.05594 49.6676 0.576687 50.4117 0.296276 51.2184C0.000569333 52.025 -0.0861033 52.9201 0.0923403 53.7995C0.18921 54.2367 0.362555 54.6686 0.612376 55.0537C0.872394 55.4336 1.21399 55.7458 1.58107 55.9904C1.96345 56.2038 2.36112 56.3755 2.76899 56.4536C2.97293 56.5056 3.17177 56.5368 3.3706 56.5524C3.55924 56.5889 3.78867 56.5785 4.013 56.5628C4.29341 56.542 4.55853 56.4692 4.80325 56.3547C5.52212 56.6721 6.32257 56.9844 7.21479 56.823C7.78071 56.745 8.30584 56.4952 8.73921 56.1465C8.96354 56.3495 9.20826 56.5056 9.50906 56.6253C9.94753 56.8022 10.4727 56.8178 10.9213 56.6877C11.37 56.5524 11.7473 56.313 12.0481 56.0424C12.2061 55.9123 12.3489 55.7666 12.4763 55.6209C12.614 55.4804 12.7363 55.3243 12.8536 55.163C13.3074 54.5333 13.6133 53.862 13.8886 53.1855C14.1588 52.5089 14.3678 51.8064 14.531 51.0987C14.6788 50.3857 14.7706 49.6572 14.7706 48.913C14.7655 48.1792 14.6992 47.4195 14.4086 46.7117L14.4035 46.7169ZM13.4756 50.8281C13.1136 52.103 12.5477 53.3728 11.8186 54.3772C11.4515 54.8403 10.9876 55.2879 10.5644 55.3919C10.3554 55.4596 10.1617 55.4544 9.95772 55.3867C9.84046 55.3503 9.7028 55.267 9.58554 55.1786C9.95262 54.6009 10.1872 53.9817 10.335 53.3624C10.5134 52.6234 10.5848 51.8637 10.544 51.1195C10.3044 51.822 10.024 52.4933 9.7079 53.123C9.3918 53.7475 9.01452 54.3355 8.56076 54.7727C8.11211 55.215 7.59717 55.4648 7.05674 55.5168C6.71005 55.5689 6.34296 55.4908 5.96568 55.3867C6.01157 55.3191 6.05745 55.2514 6.09824 55.1838C6.92928 53.7839 7.1689 52.2331 7.23518 50.7188C7.06694 51.4577 6.863 52.1863 6.58769 52.8784C6.32257 53.5706 6.00137 54.2419 5.55781 54.7831C5.11935 55.3243 4.55853 55.6834 3.97221 55.6573C3.82436 55.6573 3.68161 55.6573 3.50826 55.6053C3.34001 55.5741 3.17687 55.5377 3.02391 55.4804C2.70271 55.3919 2.4274 55.2254 2.17248 55.0589C1.92776 54.8768 1.72382 54.6582 1.56577 54.4136C1.41792 54.1586 1.32105 53.8724 1.27007 53.5706C1.1732 52.9565 1.28536 52.2956 1.50969 51.6867C1.73402 51.0674 2.1113 50.521 2.57526 50.0995C2.87096 49.8237 3.22275 49.6207 3.57454 49.4958C3.61023 49.7404 3.63572 49.9954 3.66121 50.2504C3.67651 50.5106 3.6867 50.7708 3.6918 51.0362C3.65611 51.0831 3.62042 51.1247 3.58983 51.1715C3.55924 51.1663 3.52865 51.1559 3.50316 51.1559L3.28393 51.1247C3.12588 51.1195 2.96783 51.0935 2.77919 51.1247C2.87606 51.2912 3.00862 51.4005 3.15137 51.5046C3.18706 51.5202 3.22275 51.5358 3.25334 51.5566C3.22275 51.5878 3.19726 51.6243 3.16157 51.6555C2.88116 51.9573 2.54466 52.1967 2.18268 52.4413C2.39681 52.4153 2.61604 52.3684 2.81998 52.28C3.02901 52.2019 3.21765 52.0874 3.40629 51.9625C3.50826 51.8845 3.60003 51.796 3.6918 51.7127C3.6918 52.2227 3.67651 52.7483 3.67141 53.2791C4.18635 52.3684 4.50754 51.3589 4.635 50.2921C4.70638 49.756 4.69618 49.1992 4.58402 48.6112L4.48205 48.2105C4.46166 48.1116 4.42597 48.0231 4.42087 47.919C4.39028 47.7265 4.38008 47.5235 4.40558 47.331C4.47186 46.5452 4.92561 45.8531 5.68017 45.4107C6.44493 44.984 7.40343 44.7811 8.42311 44.6405C7.53089 44.2815 6.51631 44.1618 5.49663 44.4376L5.33858 44.0681C5.24171 43.8391 5.24681 43.5841 5.35388 43.3604C5.46094 43.1418 5.64448 42.9857 5.87391 42.9284C8.58626 42.2363 10.8193 42.5329 12.2163 42.9024C12.461 42.9649 12.665 43.1262 12.7873 43.3448C12.9097 43.5633 12.9352 43.8131 12.8689 44.0525L12.6344 44.8799C12.0837 44.6666 11.5025 44.5989 10.9417 44.6458C11.5178 44.729 12.0736 44.9059 12.5426 45.2026H12.5528C12.6344 45.2546 12.721 45.3014 12.7975 45.3639C13.3125 45.7542 13.6439 46.3266 13.7866 46.9511C14.0823 48.2053 13.8733 49.5739 13.4909 50.8437L13.4756 50.8281Z" fill="#D62828"/>
<path d="M55.3019 55.1673C55.3019 55.9407 55.1154 56.6658 54.7426 57.3425C54.3835 58.0192 53.8103 58.5647 53.0231 58.979C52.2497 59.3933 51.2692 59.6005 50.0815 59.6005H47.6577V65.1523H44.7575V50.6927H50.0815C51.2001 50.6927 52.1531 50.886 52.9403 51.2727C53.7275 51.6594 54.3144 52.1911 54.7011 52.8679C55.1016 53.5446 55.3019 54.3111 55.3019 55.1673ZM49.9572 57.2596C50.7582 57.2596 51.3521 57.0801 51.7388 56.721C52.1255 56.3481 52.3188 55.8302 52.3188 55.1673C52.3188 53.7586 51.5316 53.0543 49.9572 53.0543H47.6577V57.2596H49.9572ZM58.8318 52.3085C58.3208 52.3085 57.8927 52.1497 57.5474 51.8321C57.216 51.5006 57.0503 51.0932 57.0503 50.6098C57.0503 50.1265 57.216 49.7259 57.5474 49.4083C57.8927 49.0769 58.3208 48.9111 58.8318 48.9111C59.3428 48.9111 59.764 49.0769 60.0955 49.4083C60.4408 49.7259 60.6134 50.1265 60.6134 50.6098C60.6134 51.0932 60.4408 51.5006 60.0955 51.8321C59.764 52.1497 59.3428 52.3085 58.8318 52.3085ZM60.2612 53.6758V65.1523H57.361V53.6758H60.2612ZM65.7783 62.77H70.8951V65.1523H62.4844V62.8115L67.4977 56.0581H62.5052V53.6758H70.8329V56.0167L65.7783 62.77ZM75.7923 62.77H80.9091V65.1523H72.4985V62.8115L77.5117 56.0581H72.5192V53.6758H80.8469V56.0167L75.7923 62.77ZM82.4089 59.3726C82.4089 58.2125 82.6368 57.1837 83.0925 56.286C83.5621 55.3883 84.1904 54.6978 84.9776 54.2144C85.7787 53.731 86.6694 53.4893 87.65 53.4893C88.5062 53.4893 89.252 53.662 89.8873 54.0072C90.5364 54.3525 91.0543 54.7875 91.441 55.3123V53.6758H94.3619V65.1523H91.441V63.4744C91.0681 64.013 90.5502 64.4618 89.8873 64.8209C89.2382 65.1662 88.4855 65.3388 87.6293 65.3388C86.6625 65.3388 85.7787 65.0902 84.9776 64.593C84.1904 64.0958 83.5621 63.3984 83.0925 62.5007C82.6368 61.5892 82.4089 60.5465 82.4089 59.3726ZM91.441 59.4141C91.441 58.7097 91.3029 58.109 91.0267 57.6118C90.7505 57.1008 90.3776 56.7141 89.908 56.4517C89.4385 56.1755 88.9344 56.0374 88.3958 56.0374C87.8571 56.0374 87.36 56.1686 86.9042 56.431C86.4485 56.6934 86.0756 57.0801 85.7856 57.5911C85.5093 58.0882 85.3712 58.6821 85.3712 59.3726C85.3712 60.0632 85.5093 60.6708 85.7856 61.1956C86.0756 61.7066 86.4485 62.1002 86.9042 62.3764C87.3738 62.6526 87.871 62.7907 88.3958 62.7907C88.9344 62.7907 89.4385 62.6595 89.908 62.3971C90.3776 62.1209 90.7505 61.7342 91.0267 61.2371C91.3029 60.7261 91.441 60.1184 91.441 59.4141Z" fill="#D62828"/>
<path d="M55.8294 77.9561L54.8599 76.2715H54.3327V77.9561H53.642V73.7448H55.0962C55.4194 73.7448 55.692 73.8013 55.9142 73.9144C56.1404 74.0276 56.3081 74.179 56.4172 74.3689C56.5303 74.5588 56.5868 74.7708 56.5868 75.0051C56.5868 75.2798 56.506 75.5303 56.3444 75.7565C56.1869 75.9787 55.9425 76.1302 55.6113 76.211L56.6535 77.9561H55.8294ZM54.3327 75.7201H55.0962C55.3547 75.7201 55.5486 75.6555 55.6779 75.5262C55.8112 75.397 55.8779 75.2233 55.8779 75.0051C55.8779 74.787 55.8132 74.6173 55.684 74.4961C55.5547 74.3709 55.3588 74.3083 55.0962 74.3083H54.3327V75.7201ZM58.1613 74.3022V75.5384H59.6155V76.1019H58.1613V77.3925H59.7973V77.9561H57.4705V73.7387H59.7973V74.3022H58.1613ZM62.0357 77.9985C61.7529 77.9985 61.4984 77.95 61.2722 77.853C61.046 77.7521 60.8683 77.6107 60.739 77.4289C60.6097 77.2471 60.5451 77.035 60.5451 76.7927H61.2843C61.3005 76.9744 61.3712 77.1239 61.4964 77.241C61.6257 77.3582 61.8055 77.4168 62.0357 77.4168C62.274 77.4168 62.4599 77.3602 62.5932 77.2471C62.7265 77.13 62.7931 76.9805 62.7931 76.7987C62.7931 76.6573 62.7507 76.5422 62.6659 76.4533C62.5851 76.3645 62.4821 76.2958 62.3569 76.2473C62.2357 76.1988 62.066 76.1463 61.8479 76.0898C61.5732 76.0171 61.349 75.9443 61.1753 75.8716C61.0056 75.7949 60.8602 75.6777 60.739 75.5202C60.6178 75.3626 60.5572 75.1526 60.5572 74.89C60.5572 74.6476 60.6178 74.4356 60.739 74.2538C60.8602 74.072 61.0299 73.9326 61.248 73.8357C61.4661 73.7387 61.7186 73.6902 62.0054 73.6902C62.4134 73.6902 62.7467 73.7933 63.0052 73.9993C63.2678 74.2013 63.4132 74.48 63.4415 74.8355H62.678C62.6659 74.682 62.5932 74.5507 62.4599 74.4416C62.3266 74.3325 62.1508 74.278 61.9327 74.278C61.7348 74.278 61.5732 74.3285 61.448 74.4295C61.3227 74.5305 61.2601 74.6759 61.2601 74.8658C61.2601 74.995 61.2985 75.1021 61.3752 75.1869C61.456 75.2677 61.557 75.3323 61.6782 75.3808C61.7994 75.4293 61.965 75.4818 62.1751 75.5384C62.4538 75.6151 62.68 75.6919 62.8537 75.7686C63.0315 75.8454 63.1809 75.9645 63.3021 76.1261C63.4274 76.2837 63.49 76.4957 63.49 76.7624C63.49 76.9765 63.4314 77.1784 63.3142 77.3683C63.2011 77.5582 63.0335 77.7117 62.8113 77.8288C62.5932 77.9419 62.3346 77.9985 62.0357 77.9985ZM67.0257 73.7448V74.3083H65.9047V77.9561H65.214V74.3083H64.0869V73.7448H67.0257ZM70.2642 77.0956H68.5009L68.1979 77.9561H67.4768L68.9856 73.7387H69.7855L71.2943 77.9561H70.5671L70.2642 77.0956ZM70.0703 76.5321L69.3856 74.5749L68.6948 76.5321H70.0703ZM72.635 73.7448V76.4291C72.635 76.7482 72.7178 76.9886 72.8834 77.1502C73.0531 77.3117 73.2874 77.3925 73.5863 77.3925C73.8893 77.3925 74.1236 77.3117 74.2892 77.1502C74.4589 76.9886 74.5437 76.7482 74.5437 76.4291V73.7448H75.2345V76.417C75.2345 76.7603 75.1597 77.0512 75.0103 77.2895C74.8608 77.5279 74.6608 77.7056 74.4104 77.8227C74.1599 77.9399 73.8832 77.9985 73.5803 77.9985C73.2773 77.9985 73.0006 77.9399 72.7501 77.8227C72.5037 77.7056 72.3078 77.5279 72.1624 77.2895C72.0169 77.0512 71.9442 76.7603 71.9442 76.417V73.7448H72.635ZM78.3213 77.9561L77.3518 76.2715H76.8246V77.9561H76.1339V73.7448H77.5881C77.9113 73.7448 78.184 73.8013 78.4061 73.9144C78.6323 74.0276 78.8 74.179 78.9091 74.3689C79.0222 74.5588 79.0787 74.7708 79.0787 75.0051C79.0787 75.2798 78.9979 75.5303 78.8363 75.7565C78.6788 75.9787 78.4344 76.1302 78.1032 76.211L79.1454 77.9561H78.3213ZM76.8246 75.7201H77.5881C77.8466 75.7201 78.0405 75.6555 78.1698 75.5262C78.3031 75.397 78.3698 75.2233 78.3698 75.0051C78.3698 74.787 78.3051 74.6173 78.1759 74.4961C78.0466 74.3709 77.8507 74.3083 77.5881 74.3083H76.8246V75.7201ZM82.5013 77.0956H80.738L80.435 77.9561H79.714L81.2227 73.7387H82.0226L83.5314 77.9561H82.8042L82.5013 77.0956ZM82.3074 76.5321L81.6227 74.5749L80.9319 76.5321H82.3074ZM87.6473 77.9561H86.9565L84.8782 74.8112V77.9561H84.1874V73.7387H84.8782L86.9565 76.8775V73.7387H87.6473V77.9561ZM91.2751 73.7448V74.3083H90.1541V77.9561H89.4633V74.3083H88.3363V73.7448H91.2751Z" fill="#D62828"/>
<path d="M80.2891 46.3139V47.2246H81.3605V47.6398H80.2891V48.5907H81.4944V49.0059H79.7801V45.8987H81.4944V46.3139H80.2891ZM83.1436 49.0371C82.9352 49.0371 82.7477 49.0014 82.5811 48.93C82.4144 48.8556 82.2835 48.7514 82.1882 48.6175C82.093 48.4835 82.0454 48.3273 82.0454 48.1487H82.59C82.6019 48.2826 82.654 48.3928 82.7463 48.4791C82.8415 48.5654 82.9739 48.6085 83.1436 48.6085C83.3192 48.6085 83.4561 48.5669 83.5543 48.4835C83.6525 48.3972 83.7016 48.2871 83.7016 48.1532C83.7016 48.049 83.6704 47.9642 83.6079 47.8987C83.5483 47.8332 83.4724 47.7827 83.3802 47.7469C83.2909 47.7112 83.1659 47.6725 83.0052 47.6309C82.8028 47.5773 82.6376 47.5237 82.5096 47.4702C82.3846 47.4136 82.2775 47.3273 82.1882 47.2112C82.0989 47.0952 82.0543 46.9404 82.0543 46.7469C82.0543 46.5684 82.0989 46.4121 82.1882 46.2782C82.2775 46.1443 82.4025 46.0416 82.5632 45.9702C82.7239 45.8987 82.9099 45.863 83.1212 45.863C83.4218 45.863 83.6674 45.9389 83.8579 46.0907C84.0513 46.2395 84.1584 46.4449 84.1793 46.7068H83.6168C83.6079 46.5937 83.5543 46.4969 83.4561 46.4166C83.3579 46.3362 83.2284 46.2961 83.0677 46.2961C82.9218 46.2961 82.8028 46.3333 82.7105 46.4077C82.6183 46.4821 82.5721 46.5892 82.5721 46.7291C82.5721 46.8243 82.6004 46.9032 82.657 46.9657C82.7165 47.0252 82.7909 47.0728 82.8802 47.1085C82.9695 47.1443 83.0915 47.183 83.2462 47.2246C83.4516 47.2812 83.6183 47.3377 83.7462 47.3943C83.8772 47.4508 83.9873 47.5386 84.0766 47.6577C84.1689 47.7737 84.215 47.93 84.215 48.1264C84.215 48.2841 84.1718 48.4329 84.0855 48.5728C84.0022 48.7127 83.8787 48.8258 83.715 48.9121C83.5543 48.9954 83.3638 49.0371 83.1436 49.0371ZM86.82 45.9032V46.3184H85.9941V49.0059H85.4851V46.3184H84.6548V45.9032H86.82ZM87.5407 49.0371C87.4485 49.0371 87.3711 49.0059 87.3086 48.9434C87.2461 48.8809 87.2148 48.8035 87.2148 48.7112C87.2148 48.619 87.2461 48.5416 87.3086 48.4791C87.3711 48.4166 87.4485 48.3853 87.5407 48.3853C87.63 48.3853 87.7059 48.4166 87.7684 48.4791C87.8309 48.5416 87.8622 48.619 87.8622 48.7112C87.8622 48.8035 87.8309 48.8809 87.7684 48.9434C87.7059 49.0059 87.63 49.0371 87.5407 49.0371ZM89.7861 48.3139C90.0719 48.0669 90.2966 47.8645 90.4603 47.7068C90.6269 47.546 90.7653 47.3794 90.8754 47.2068C90.9855 47.0341 91.0406 46.8615 91.0406 46.6889C91.0406 46.5103 90.9975 46.3705 90.9111 46.2693C90.8278 46.1681 90.6954 46.1175 90.5138 46.1175C90.3382 46.1175 90.2013 46.174 90.1031 46.2871C90.0079 46.3972 89.9573 46.5461 89.9513 46.7335H89.4603C89.4692 46.3943 89.5704 46.1353 89.7638 45.9568C89.9603 45.7752 90.2088 45.6844 90.5094 45.6844C90.8338 45.6844 91.0867 45.7737 91.2683 45.9523C91.4528 46.1309 91.5451 46.369 91.5451 46.6666C91.5451 46.8809 91.49 47.0877 91.3799 47.2871C91.2727 47.4835 91.1433 47.6606 90.9915 47.8184C90.8427 47.9731 90.6522 48.1532 90.4201 48.3585L90.2192 48.5371H91.6344V48.9612H89.4647V48.5907L89.7861 48.3139ZM92.0814 47.3362C92.0814 46.8213 92.1678 46.4196 92.3404 46.1309C92.516 45.8392 92.8166 45.6934 93.2422 45.6934C93.6677 45.6934 93.9669 45.8392 94.1395 46.1309C94.3151 46.4196 94.4029 46.8213 94.4029 47.3362C94.4029 47.8571 94.3151 48.2648 94.1395 48.5594C93.9669 48.8511 93.6677 48.9969 93.2422 48.9969C92.8166 48.9969 92.516 48.8511 92.3404 48.5594C92.1678 48.2648 92.0814 47.8571 92.0814 47.3362ZM93.9029 47.3362C93.9029 47.0952 93.8865 46.8913 93.8538 46.7246C93.824 46.558 93.7615 46.4225 93.6663 46.3184C93.571 46.2112 93.4297 46.1577 93.2422 46.1577C93.0547 46.1577 92.9133 46.2112 92.818 46.3184C92.7228 46.4225 92.6588 46.558 92.6261 46.7246C92.5963 46.8913 92.5814 47.0952 92.5814 47.3362C92.5814 47.5862 92.5963 47.796 92.6261 47.9657C92.6558 48.1353 92.7183 48.2722 92.8136 48.3764C92.9118 48.4806 93.0547 48.5326 93.2422 48.5326C93.4297 48.5326 93.571 48.4806 93.6663 48.3764C93.7645 48.2722 93.8285 48.1353 93.8582 47.9657C93.888 47.796 93.9029 47.5862 93.9029 47.3362ZM95.2226 48.3139C95.5083 48.0669 95.733 47.8645 95.8967 47.7068C96.0634 47.546 96.2018 47.3794 96.3119 47.2068C96.422 47.0341 96.4771 46.8615 96.4771 46.6889C96.4771 46.5103 96.4339 46.3705 96.3476 46.2693C96.2643 46.1681 96.1318 46.1175 95.9503 46.1175C95.7747 46.1175 95.6378 46.174 95.5396 46.2871C95.4443 46.3972 95.3937 46.5461 95.3878 46.7335H94.8967C94.9056 46.3943 95.0068 46.1353 95.2003 45.9568C95.3967 45.7752 95.6452 45.6844 95.9458 45.6844C96.2702 45.6844 96.5232 45.7737 96.7047 45.9523C96.8893 46.1309 96.9815 46.369 96.9815 46.6666C96.9815 46.8809 96.9265 47.0877 96.8164 47.2871C96.7092 47.4835 96.5797 47.6606 96.428 47.8184C96.2792 47.9731 96.0887 48.1532 95.8565 48.3585L95.6556 48.5371H97.0708V48.9612H94.9012V48.5907L95.2226 48.3139ZM99.6161 46.1889H98.1206V47.0773C98.1831 46.994 98.2753 46.924 98.3974 46.8675C98.5224 46.8109 98.6548 46.7827 98.7947 46.7827C99.0447 46.7827 99.2471 46.8362 99.4018 46.9434C99.5596 47.0505 99.6712 47.1859 99.7366 47.3496C99.8051 47.5133 99.8393 47.6859 99.8393 47.8675C99.8393 48.0877 99.7962 48.2841 99.7099 48.4568C99.6265 48.6264 99.5 48.7603 99.3304 48.8585C99.1637 48.9568 98.9584 49.0059 98.7143 49.0059C98.3899 49.0059 98.1295 48.9255 97.9331 48.7648C97.7367 48.6041 97.6191 48.3913 97.5804 48.1264H98.0759C98.1087 48.2663 98.1816 48.3779 98.2947 48.4612C98.4078 48.5416 98.5492 48.5818 98.7188 48.5818C98.9301 48.5818 99.0878 48.5178 99.192 48.3898C99.2991 48.2618 99.3527 48.0922 99.3527 47.8809C99.3527 47.6666 99.2991 47.5029 99.192 47.3898C99.0849 47.2737 98.9271 47.2157 98.7188 47.2157C98.573 47.2157 98.4494 47.2529 98.3483 47.3273C98.25 47.3987 98.1786 47.4969 98.134 47.6219H97.6518V45.7425H99.6161V46.1889Z" fill="#D62828"/>
<path d="M43.8047 70.2744H101.998" stroke="#D62828" stroke-width="0.637012" stroke-miterlimit="10"/>
<path d="M66.7812 47.1494H79.0276" stroke="#D62828" stroke-width="0.637012" stroke-miterlimit="10"/>
</svg>
